<?xml version="1.0" encoding="UTF-8" standalone="no"?>
<svg
   width="56"
   height="56"
   fill="none"
   version="1.1"
   id="svg59"
   sodipodi:docname="logoMy.svg"
   inkscape:version="1.1 (c68e22c387, 2021-05-23)"
   xmlns:inkscape="http://www.inkscape.org/namespaces/inkscape"
   xmlns:sodipodi="http://sodipodi.sourceforge.net/DTD/sodipodi-0.dtd"
   xmlns="http://www.w3.org/2000/svg"
   xmlns:svg="http://www.w3.org/2000/svg">
  <sodipodi:namedview
     id="namedview61"
     pagecolor="#505050"
     bordercolor="#eeeeee"
     borderopacity="1"
     inkscape:pageshadow="0"
     inkscape:pageopacity="0"
     inkscape:pagecheckerboard="0"
     showgrid="false"
     inkscape:snap-grids="true"
     inkscape:zoom="2.8284271"
     inkscape:cx="116.14229"
     inkscape:cy="28.107494"
     inkscape:window-width="1680"
     inkscape:window-height="987"
     inkscape:window-x="-8"
     inkscape:window-y="-8"
     inkscape:window-maximized="1"
     inkscape:current-layer="svg59" />
  <g
     id="g3618"
     transform="matrix(1.4179663,0,0,1.4004705,-98.993202,-3.4516131)">
    <path
       id="path183"
       style="fill:#ff3a62;fill-opacity:1;stroke-width:1.06286"
       d="M 89.835458,2.4708553 A 19.98704,19.98704 0 0 0 69.847177,22.459136 19.98704,19.98704 0 0 0 89.835458,42.445464 19.98704,19.98704 0 0 0 109.82179,22.459136 19.98704,19.98704 0 0 0 89.835458,2.4708553 Z"
       inkscape:transform-center-x="2.1491441"
       inkscape:transform-center-y="-0.64474323" />
    <path
       fill-rule="evenodd"
       clip-rule="evenodd"
       d="m 91.555691,25.180684 h -1.6 l 2.06,2.43 h -1.18 l -3.06,-3.4 h 2.86 a 4.6,4.6 0 0 0 4.68,-4.5 c 0,-1.07 -0.4,-2.06 -1.04,-2.83 -0.78,-1.17 0.12,-2.02 0.92,-2.02 -0.2,-0.91 -1.31,-0.98 -1.31,-0.98 -0.13,-0.36 -0.44,-0.89 -1.05,-0.89 h -1.6 a 0.4,0.4 0 0 0 -0.06,0.01 h -0.05 c -0.79,0.09 -1.55,0.66 -0.79,1.8 0.02,0.02 1.1,1.5 1.1,3.02 0,2.6 -2.2,4.88 -4.9,4.88 h -11.08 c 0,0.85 0.66,1.51 1.48,1.51 h 9.3 l 2.87,3.4 h -8.93 v 2.5 h 18.660003 v -2.5 h -5.100003 l -2.2,-2.43 z m -2.22,-4.42 a 4.2,4.2 0 0 0 1.23,-2.93 c 0,-1.28 -0.95,-2.61 -0.96,-2.63 v -0.02 a 2.47,2.47 0 0 1 -0.4,-0.83 l -7.13,7.66 h 4.32 c 1.1,0 2.14,-0.45 2.94,-1.25 z m -12.46,9.36 h 2.36 v -2.54 h -2.36 z m 22.980007,0.02 v -2.54 l 2.040002,1.22 z m -7.720007,-15.48 c 0.24,0 0.43,-0.18 0.43,-0.4 0,-0.23 -0.2,-0.41 -0.43,-0.41 a 0.41,0.41 0 0 0 -0.42,0.4 c 0,0.23 0.19,0.41 0.42,0.41 z"
       fill="#ffffff"
       id="path40"
       inkscape:transform-center-x="2.9855611"
       inkscape:transform-center-y="-1.7521329" />
  </g>
  <defs
     id="defs57">
    <filter
       id="a"
       x="0"
       y="0"
       width="56"
       height="56"
       filterUnits="userSpaceOnUse"
       color-interpolation-filters="sRGB">
      <feFlood
         flood-opacity="0"
         result="BackgroundImageFix"
         id="feFlood42" />
      <feColorMatrix
         in="SourceAlpha"
         values="0 0 0 0 0 0 0 0 0 0 0 0 0 0 0 0 0 0 127 0"
         result="hardAlpha"
         id="feColorMatrix44" />
      <feOffset
         dy="4"
         id="feOffset46" />
      <feGaussianBlur
         stdDeviation="4"
         id="feGaussianBlur48" />
      <feColorMatrix
         values="0 0 0 0 0 0 0 0 0 0 0 0 0 0 0 0 0 0 0.08 0"
         id="feColorMatrix50" />
      <feBlend
         in2="BackgroundImageFix"
         result="effect1_dropShadow_0_117"
         id="feBlend52" />
      <feBlend
         in="SourceGraphic"
         in2="effect1_dropShadow_0_117"
         result="shape"
         id="feBlend54" />
    </filter>
  </defs>
</svg>
