<svg width="56" height="56" fill="none" xmlns="http://www.w3.org/2000/svg"><g filter="url(#a)"><path d="M28 44a20 20 0 1 0 0-40 20 20 0 0 0 0 40Z" fill="#FF3A62"/></g><path fill-rule="evenodd" clip-rule="evenodd" d="M30.52 26.9h-1.6l2.06 2.43H29.8l-3.06-3.4H29.6a4.6 4.6 0 0 0 4.68-4.5c0-1.07-.4-2.06-1.04-2.83-.78-1.17.12-2.02.92-2.02-.2-.91-1.31-.98-1.31-.98-.13-.36-.44-.89-1.05-.89h-1.6a.4.4 0 0 0-.06.01h-.05c-.79.09-1.55.66-.79 1.8.02.02 1.1 1.5 1.1 3.02 0 2.6-2.2 4.88-4.9 4.88H14.42c0 .85.66 1.51 1.48 1.51h9.3l2.87 3.4h-8.93v2.5H37.8v-2.5h-5.1l-2.2-2.43Zm-2.22-4.42a4.2 4.2 0 0 0 1.23-2.93c0-1.28-.95-2.61-.96-2.63v-.02a2.47 2.47 0 0 1-.4-.83l-7.13 7.66h4.32c1.1 0 2.14-.45 2.94-1.25Zm-12.46 9.36h2.36V29.3h-2.36v2.54Zm22.98.02v-2.54l2.04 1.22-2.04 1.32ZM31.1 16.38c.24 0 .43-.18.43-.4 0-.23-.2-.41-.43-.41a.41.41 0 0 0-.42.4c0 .23.19.41.42.41Z" fill="#fff"/><defs><filter id="a" x="0" y="0" width="56" height="56" filterUnits="userSpaceOnUse" color-interpolation-filters="sRGB"><feFlood flood-opacity="0" result="BackgroundImageFix"/><feColorMatrix in="SourceAlpha" values="0 0 0 0 0 0 0 0 0 0 0 0 0 0 0 0 0 0 127 0" result="hardAlpha"/><feOffset dy="4"/><feGaussianBlur stdDeviation="4"/><feColorMatrix values="0 0 0 0 0 0 0 0 0 0 0 0 0 0 0 0 0 0 0.08 0"/><feBlend in2="BackgroundImageFix" result="effect1_dropShadow_0_117"/><feBlend in="SourceGraphic" in2="effect1_dropShadow_0_117" result="shape"/></filter></defs></svg>